<?xml version="1.0" encoding="utf-8"?>
<!DOCTYPE svg
  PUBLIC '-//W3C//DTD SVG 1.0//EN'
  'http://www.w3.org/TR/2001/REC-SVG-20010904/DTD/svg10.dtd'>
<svg width="800" height="600" preserveAspectRatio="xMinYMin meet" viewBox="0 0 800 600" xmlns="http://www.w3.org/2000/svg" version="1.0" fill-rule="evenodd" xmlns:xlink="http://www.w3.org/1999/xlink">
	<title>...</title>
	<desc>...</desc>
	<clipPath id="clip">
		<rect x="0" y="0" width="800" height="600"/>
	</clipPath>
	<g id="group" transform="scale(1,-1) translate(0,-600)" style="clip-path: url(#clip)">
		<g transform="">
			<rect x="0" y="0" width="800" height="600" style="stroke: rgb(0%,0%,0%); stroke-linecap: butt; stroke-width: 1; fill: rgb(0%,0%,0%); fill-rule: evenodd;"/>
			<text x="285.62" y="550" style="font-family: Helvetica-Bold; font-size: 28px;fill: rgb(100%,0%,100%); stroke:none;" transform="translate(0,1100) scale(1,-1)">Salón de la Fama</text>
			<text x="174.672" y="500" style="font-family: Times-Roman; font-size: 16px;fill: rgb(0%,100%,100%); stroke:none;" transform="translate(0,1000) scale(1,-1)">Jugador</text>
			<text x="376.0" y="500" style="font-family: Times-Roman; font-size: 16px;fill: rgb(0%,100%,100%); stroke:none;" transform="translate(0,1000) scale(1,-1)">Puntaje</text>
			<text x="568.896" y="500" style="font-family: Times-Roman; font-size: 16px;fill: rgb(0%,100%,100%); stroke:none;" transform="translate(0,1000) scale(1,-1)">Laberinto</text>
			<text x="188.338" y="460" style="font-family: Times-Roman; font-size: 14px;fill: rgb(100%,100%,100%); stroke:none;" transform="translate(0,920) scale(1,-1)">Ana</text>
			<text x="389.5" y="460" style="font-family: Times-Roman; font-size: 14px;fill: rgb(100%,100%,0%); stroke:none;" transform="translate(0,920) scale(1,-1)">100</text>
			<text x="567.534" y="460" style="font-family: Times-Roman; font-size: 14px;fill: rgb(0%,50%,0%); stroke:none;" transform="translate(0,920) scale(1,-1)">Laberinto 1</text>
			<text x="187.554" y="420" style="font-family: Times-Roman; font-size: 14px;fill: rgb(100%,100%,100%); stroke:none;" transform="translate(0,840) scale(1,-1)">Luis</text>
			<text x="389.5" y="420" style="font-family: Times-Roman; font-size: 14px;fill: rgb(100%,100%,0%); stroke:none;" transform="translate(0,840) scale(1,-1)">200</text>
			<text x="567.534" y="420" style="font-family: Times-Roman; font-size: 14px;fill: rgb(0%,50%,0%); stroke:none;" transform="translate(0,840) scale(1,-1)">Laberinto 2</text>
			<text x="185.223" y="380" style="font-family: Times-Roman; font-size: 14px;fill: rgb(100%,100%,100%); stroke:none;" transform="translate(0,760) scale(1,-1)">Sofía</text>
			<text x="389.5" y="380" style="font-family: Times-Roman; font-size: 14px;fill: rgb(100%,100%,0%); stroke:none;" transform="translate(0,760) scale(1,-1)">300</text>
			<text x="567.534" y="380" style="font-family: Times-Roman; font-size: 14px;fill: rgb(0%,50%,0%); stroke:none;" transform="translate(0,760) scale(1,-1)">Laberinto 3</text>
			<text x="183.66899999999998" y="340" style="font-family: Times-Roman; font-size: 14px;fill: rgb(100%,100%,100%); stroke:none;" transform="translate(0,680) scale(1,-1)">Pedro</text>
			<text x="389.5" y="340" style="font-family: Times-Roman; font-size: 14px;fill: rgb(100%,100%,0%); stroke:none;" transform="translate(0,680) scale(1,-1)">400</text>
			<text x="567.534" y="340" style="font-family: Times-Roman; font-size: 14px;fill: rgb(0%,50%,0%); stroke:none;" transform="translate(0,680) scale(1,-1)">Laberinto 4</text>
		</g>
	</g>
</svg>
