<?xml version="1.0" encoding="utf-8"?>
<!DOCTYPE svg
  PUBLIC '-//W3C//DTD SVG 1.0//EN'
  'http://www.w3.org/TR/2001/REC-SVG-20010904/DTD/svg10.dtd'>
<svg width="800" height="600" preserveAspectRatio="xMinYMin meet" viewBox="0 0 800 600" xmlns="http://www.w3.org/2000/svg" version="1.0" fill-rule="evenodd" xmlns:xlink="http://www.w3.org/1999/xlink">
	<title>...</title>
	<desc>...</desc>
	<clipPath id="clip">
		<rect x="0" y="0" width="800" height="600"/>
	</clipPath>
	<g id="group" transform="scale(1,-1) translate(0,-600)" style="clip-path: url(#clip)">
		<g transform="">
			<rect x="0" y="0" width="800" height="600" style="stroke: rgb(0%,0%,0%); stroke-linecap: butt; stroke-width: 1; fill: rgb(0%,0%,0%); fill-rule: evenodd;"/>
			<text x="190.64799999999997" y="550" style="font-family: Helvetica-Bold; font-size: 24px;fill: rgb(0%,100%,100%); stroke:none;" transform="translate(0,1100) scale(1,-1)">CodeRunner: ¡Corre por el laberinto!</text>
			<rect x="300" y="430" width="200" height="40" style="stroke: rgb(0%,100%,100%); stroke-linecap: butt; stroke-width: 1; fill: rgb(0%,0%,54%); fill-rule: evenodd;"/>
			<text x="354.648" y="450" style="font-family: Helvetica; font-size: 16px;fill: rgb(100%,100%,100%); stroke:none;" transform="translate(0,900) scale(1,-1)">Iniciar Juego</text>
			<rect x="300" y="370" width="200" height="40" style="stroke: rgb(0%,100%,100%); stroke-linecap: butt; stroke-width: 1; fill: rgb(0%,0%,54%); fill-rule: evenodd;"/>
			<text x="337.304" y="390" style="font-family: Helvetica; font-size: 16px;fill: rgb(100%,100%,100%); stroke:none;" transform="translate(0,780) scale(1,-1)">Salón de la Fama</text>
			<rect x="300" y="310" width="200" height="40" style="stroke: rgb(0%,100%,100%); stroke-linecap: butt; stroke-width: 1; fill: rgb(0%,0%,54%); fill-rule: evenodd;"/>
			<text x="347.544" y="330" style="font-family: Helvetica; font-size: 16px;fill: rgb(100%,100%,100%); stroke:none;" transform="translate(0,660) scale(1,-1)">Administración</text>
			<rect x="300" y="250" width="200" height="40" style="stroke: rgb(0%,100%,100%); stroke-linecap: butt; stroke-width: 1; fill: rgb(0%,0%,54%); fill-rule: evenodd;"/>
			<text x="384.0" y="270" style="font-family: Helvetica; font-size: 16px;fill: rgb(100%,100%,100%); stroke:none;" transform="translate(0,540) scale(1,-1)">Salir</text>
		</g>
	</g>
</svg>
